<svg xmlns="http://www.w3.org/2000/svg" viewBox="0 0 2000 379.13"><defs><style>.cls-1{fill:#2dfcfc;}</style></defs><g id="图层_2" data-name="图层 2"><g id="图层_1-2" data-name="图层 1"><polygon class="cls-1" points="720.18 163.09 642.42 49.62 573.83 49.62 573.83 51.97 691.35 210.99 691.35 341.73 749.01 341.73 749.01 210.99 870.9 51.97 870.9 49.62 801.44 49.62 720.18 163.09"/><path class="cls-1" d="M1188.9,98.58h89.74V335.21h57.67V98.58h89.74v-49H1188.9Z"/><path class="cls-1" d="M1456.74,98.58h89.74V335.21h57.67V98.58h89.74v-49H1456.74Z"/><path class="cls-1" d="M1025.28,43.92a148.9,148.9,0,1,0,148.9,148.9A148.89,148.89,0,0,0,1025.28,43.92Zm0,244.21a95.31,95.31,0,1,1,95.3-95.31A95.31,95.31,0,0,1,1025.28,288.13Z"/><path class="cls-1" d="M1946.4,49.62v22.3a148.9,148.9,0,1,0,0,228.78v30H2000V49.62Zm-95.3,232a95.31,95.31,0,1,1,95.3-95.3A95.31,95.31,0,0,1,1851.1,281.61Z"/><circle class="cls-1" cx="109.55" cy="109.55" r="109.55"/><polygon class="cls-1" points="355.01 0 91.55 379.13 237.45 379.13 500.91 0 355.01 0"/></g></g></svg>