<svg xmlns="http://www.w3.org/2000/svg" viewBox="0 0 608.61 131.51"><defs><style>.cls-1{fill:#2dfcfc;}</style></defs><g id="图层_2" data-name="图层 2"><g id="图层_1-2" data-name="图层 1"><polygon class="cls-1" points="249.81 56.57 222.84 17.21 199.05 17.21 199.05 18.03 239.81 73.19 239.81 118.54 259.81 118.54 259.81 73.19 302.1 18.03 302.1 17.21 278 17.21 249.81 56.57"/><path class="cls-1" d="M418.33,34.19h31.13v82.09h20V34.19h31.13v-17H418.33Z"/><path class="cls-1" d="M590,17.21V25a51.66,51.66,0,1,0,0,79.35v10.41h18.59V17.21ZM557,97.68A33.06,33.06,0,1,1,590,64.63,33.06,33.06,0,0,1,557,97.68Z"/><circle class="cls-1" cx="38" cy="38" r="38"/><polygon class="cls-1" points="123.14 0 31.76 131.51 82.37 131.51 173.75 0 123.14 0"/><path class="cls-1" d="M386.81,17.21V25a51.66,51.66,0,1,0,0,79.35v10.41H405.4V17.21ZM353.75,97.68a33.06,33.06,0,1,1,33.06-33.05A33.06,33.06,0,0,1,353.75,97.68Z"/></g></g></svg>